<?xml version="1.0" encoding="utf-8"?>
<!-- Generator: Adobe Illustrator 26.1.0, SVG Export Plug-In . SVG Version: 6.00 Build 0)  -->
<svg version="1.1" xmlns="http://www.w3.org/2000/svg" xmlns:xlink="http://www.w3.org/1999/xlink" x="0px" y="0px"
	 viewBox="0 0 264 554" style="enable-background:new 0 0 264 554;" xml:space="preserve">
<style type="text/css">
	.st0{display:none;}
	.st1{display:inline;}
	.st2{fill-rule:evenodd;clip-rule:evenodd;fill:#0089DB;}
	.st3{fill-rule:evenodd;clip-rule:evenodd;fill:#323232;}
</style>
<g id="Calque_1">
</g>
<g id="Calque_3">
</g>
<g id="Calque_2" class="st0">
	<g class="st1">
		<path class="st2" d="M262.2,77.9c-8.4-65.2-28.8-109-58.1-113.5c-56.7-8.8-120.4,127.1-144.2,281C43.3,352.4,57.4,437,86.7,441.5
			c2.8,0.4,5.5,0.3,8.5-0.7C81.4,399,79.8,326.7,91.6,250.2c18.9-121.7,64.2-212,100.2-206.4c39.4,6.1,50.3,115.4,33,227.1
			c-13,82.4-36.5,162.7-65,220.1c-25,50.2-51.8,80-77.3,86.9c0,0,2,0.8,4.6,1.2c65.9,10.2,141.8-125.8,169.3-303.3
			C267.7,202.8,269.2,134.1,262.2,77.9z M214,269.2c16.6-107.1,2.6-191.7-26.7-196.2c-2.8-0.4-5.5-0.3-8.5,0.7
			c13.8,41.8,15.4,114.1,3.5,190.6c-18.9,121.7-64.2,212-100.2,206.4c-39.4-6.1-50.3-115.4-33-227.1c13-82.4,36.5-162.7,65-220.1
			c25-50.2,51.8-80,77.3-86.9c0,0-2-0.8-4.6-1.2C121-74.8,45.1,61.2,17.6,238.7C6.3,311.7,4.8,380.4,11.8,436.6
			c8.4,65.2,28.9,108.5,58.1,113C126.5,558.9,190.2,423.1,214,269.2z"/>
	</g>
</g>
<g id="Calque_4">
	<g>
		<path class="st3" d="M165.6,455.1c5-13.4,8.4-35.4,14.8-78.8c6.1-40.8,5.4-42.3,10.7-77c6.2-41.1,9.3-61.7,14.1-87.1
			c0.3-1.8,5.4-28.3,8-62.8c0.5-6.8,1.3-18.7-1.4-33.8c-2.3-13-5.3-28.1-17.6-36.4c-5.1-3.4-10.3-4.7-13.9-5.2l2.1,2.1
			c0.8,1,1.8,1.9,2.9,2.6c1.2,0.5,2.5,0.5,3.6,0c-1,1.2-1.6,2.7-1.8,4.2c0.6,1.8,1,3.7,1.2,5.6c0.3,2.1,0.3,4.3,0,6.4
			c0.1,1.9,0.1,3.7,0,5.6c-0.2,1.4,0,3.6-1.2,6.7c-1.2,3-1.2,5.8-1.2,5.8c-1.5,7.3-3.6,20.6-6.4,39.7c-2,10.8-4.2,26.8-6.7,48.3
			c-0.8,7.3-2.4,18-4.7,32.6c-2.3,14.5-4.7,25.5-4.7,32.7c-2.6,20.6-5.3,39.4-8.2,56.2c-1.7,10.5-3.6,27.7-6.1,51.5
			c-0.7,4-1.7,8-3,11.8l-2.1,4.4c-0.5,4.2-1.2,10.8-2.7,19.4c-1.5,8.6-2.7,15.3-2.7,19.7c0,3.8-0.3,7.5-0.9,11.2
			c-0.6,3.9-1.5,8.3-2.9,13.5c-1.8,6.6-2.4,10-2.6,10.8c-0.8,2.9-4.5,13.2-13,20.9c-0.8,0.7-17.7,15.5-36,10.4
			c-8.2-2.3-15.7-8.2-24.9-24.3c-19.2-33.5-20.9-67-21.2-72.3c-1.6-39.3,3.6-64.9,15.1-129.9c10.5-58.8,12.2-71.4,20.2-111.3
			c13.6-67.7,22.2-89.3,29.8-101.4c2.1-3.3,3.9-5.6,4.6-6.4c24-31.6,56.8-44,79.9-49.3c-13.6,0.8-27.3,1.5-40.9,2.3
			c-12.6,6.4-22.3,10.9-29.2,13.6c-22,8.6-40.2,24.7-51.5,45.4c-0.9,1.7-1.8,3.5-2.4,5.3c-0.9,2.2-1.9,4.3-3.2,6.4
			c-1.2,1.8-2.7,3.3-4.4,4.5c0.5,2.7,0.8,5.4,0.9,8.2c-0.1,2.7-0.4,5.4-0.9,8c-1.2,3.6-0.9,6.8-1.2,8c-0.3,1.2-1.5,3-1.5,5.6
			c-0.7,1.8-1.2,3.7-1.5,5.6l-8.9,47.7c-0.2,2-0.9,6.7-2.1,13.9c-1.2,7.3-2.1,12.9-2.1,16.7c-1.1,6.7-1.1,13.6,0,20.3
			c-1.3,0.8-2.3,2-3,3.3c-0.7,1.3-1.1,2.8-1.2,4.3c-0.2,2.7,0,6.2-1.2,11.2c-1.2,5-1.2,8.5-1.2,10.8c-1.1,7.1-2.8,14.1-5.2,20.9
			c-1.9,6.1-2.9,12.4-3,18.8c0,13.8-1.2,27.5-3.6,41.1c-4.2,25.5-7.6,43.6-7.6,54.5l-5.5,49.8c-2,13.9-3.3,23-3.3,24.2s0,2.6,0,4.2
			c0,1.7,0.8,3.3,0,5.5c-0.8,2.1-0.8,3.6-0.8,4.5c-2.3,8.6-2.7,17.5-1.2,26.2c2.7,15.4,10.4,29.6,21.8,40.3c3.2,2.8,6.8,5,10.6,6.8
			c4.8,2.6,8.2,4.4,10,5.6h9.2c0.8,0,1.7,0.6,2.9,1.8l2.3,2l13.2,1.8l3,0.4c11.3-3.9,27.8-11.1,44.3-24.6
			C147.6,501.8,159.3,471.9,165.6,455.1z"/>
		<path class="st3" d="M73.8,550.7"/>
		<path class="st3" d="M262,55.4c-0.8-5.3-6.8-22.1-23.3-33.9c-7.3-5.3-14.5-7.8-19.2-9.1c-11.5-0.9-37.3-1.4-64.6,13
			c-6.2,3.3-22.8,12.8-37.3,31.4c-13.1,16.9-18,32.8-28.8,87.4c-6.4,32.4-10,53.8-15.6,85.7c-10.3,59.1-11.9,65.4-15.4,90.1
			c-3.3,23.1-8.9,66.1-3.9,99.3c0,0,4.5,29.5,19.3,49.5c0.8,1.1,1.7,2.2,1.7,2.2c0.6,0.8,1.4,1.7,2.3,2.8c-0.5-3.5-0.5-7,0-10.5
			c1.9-8.6,2.9-17.3,3-26.1c0.7-6.7,1.8-13.4,3.3-20c3.1-15.9,5.4-31.9,6.7-48c-0.8-0.2-1.6-0.2-2.4,0c-0.5-0.9-0.6-1.8,1.5-2.3
			c2.1-0.5,2.1-1.1,2.1-2c-0.3-4-0.3-8,0-12c0.4-4.1,1.1-8.1,2-12.1c1.1-5.6,1.5-9.8,2-12c0.5-2.1,1.2-5.2,2.6-11.5
			c1.4-6.4,2.9-11.2,2.9-15.2c0.4-3.8,0.4-7.6,0-11.4c0.1-7.6,1.1-15.2,2.9-22.6c2.1-10.3,3.5-16.2,3.5-17.7l10.9-78.9
			c0.3-1.5,1.2-5.5,2.7-11.8c1.4-4.4,2.1-9.1,1.8-13.8c-0.1-5.1,0.5-10.2,1.8-15.1c0.5-2.4,1.3-4.8,2.6-7c-0.3-2.8-0.3-5.6,0-8.3
			c0.2-2.9,0.5-5.9,1.1-8.8c1.2-3.9,1.2-7,1.2-8.9c0.5-1.4,0.5-2.9,0-4.2c0.4-2.6,1.2-6.4,3.1-10.5c0,0,5.2-11.5,16.1-17.9
			c17.5-10.3,38.9-0.9,43.3,1.2c24.9,11.8,32.4,39.1,34.5,46.7c4.2,15.2,2.4,24.6-3.7,64.1c-4.5,29.1-8.3,58.3-12.8,87.4
			c-4.1,26.9-6.9,46.5-10.6,71.7c-12.7,88.8-10.7,87.8-15.7,104c-7.4,23.9-19.3,60.9-53.4,90.2c-14.1,12.1-27.8,19.4-37.3,23.6
			c12.2,1.2,33.5,1.6,57.1-7.8c11.5-4.6,20.6-10.3,27.4-15.4l2-1.4l2.1-1.5l1.7-1.4c0.7-0.4,1.3-1,1.7-1.7c0.4-0.6,0.8-1.2,1.1-1.8
			c0.5-0.7,0.8-1.5,0.9-2.3c0-0.9,0-0.9,0-0.9c2.4-1,4.6-2.5,6.4-4.5c1.8-1.9,3.1-4.2,3.9-6.7c3.8-7,7-14.3,9.5-21.8
			c3.1-11.2,5.2-22.6,6.4-34.1c0-1.3,0-4.3,0-9.1c-0.1-3.7,0.5-7.5,2-10.9c1.8-5.2,2.6-10.6,2.4-16.1c0.1-12.6,1.7-25.2,4.8-37.4
			c1.9-8.6,3.2-17.3,3.9-26.1c0-2.3-1.1-5.3,0-9.1c1.1-3.8,1.1-7.4,1.1-10.6c0.3-3.2,0.9-6.3,1.8-9.4c0-0.9,1.2-10.8,3.6-30.3
			c0.9-2.4,1.4-7.5,1.4-15.1c0.2-5.9,1.1-11.8,2.6-17.6c0.5-2.3,1.1-4.5,1.8-6.7c1.4-13.3,3.8-26.4,7.3-39.2c0.2-0.6,0.2-1.3,0-2
			l-1.1-1.5l-0.9-1.1l0.9-0.5c0.8-0.4,1.6-1.1,2.2-1.8c0.6-0.8,1-1.6,1.2-2.6c0-0.7,0-1.4,0-2.1c0.2-0.8,0.2-1.6,0-2.4
			c-0.1-0.8-0.1-1.5,0-2.3c1.1-12.7,0.9-20.6,2.7-25.5c1.8-4.8,1.8-7.9,1.8-7.9c-0.1-5.7,0.2-11.3,0.9-17c0.8-6.1,2.1-12.7,3.8-21.2
			c2.1-8.4,3.2-14,3.2-16.8c1.4-6.9,2.3-13.9,2.7-20.9C264,78.3,263.7,66.8,262,55.4z"/>
		<path class="st3" d="M73.8,550.7C73.8,550.7,73.8,550.7,73.8,550.7L73.8,550.7z"/>
	</g>
</g>
</svg>
